<svg width="38" height="38" viewBox="0 0 38 38" fill="none" xmlns="http://www.w3.org/2000/svg">
<path d="M20.8846 0.666504C22.9471 0.672004 23.9939 0.683004 24.8977 0.708671L25.2534 0.721504C25.6641 0.736171 26.0692 0.754504 26.5587 0.776504C28.5094 0.86817 29.8404 1.17617 31.0082 1.629C32.2182 2.09467 33.2376 2.72534 34.2569 3.74284C35.1895 4.65901 35.9109 5.7677 36.3707 6.9915C36.8236 8.15934 37.1316 9.49034 37.2232 11.4428C37.2452 11.9305 37.2636 12.3357 37.2782 12.7482L37.2892 13.1038C37.3167 14.0058 37.3277 15.0527 37.3314 17.1152L37.3332 18.4828V20.8845C37.3377 22.2217 37.3236 23.559 37.2911 24.8958L37.2801 25.2515C37.2654 25.664 37.2471 26.0692 37.2251 26.5568C37.1334 28.5093 36.8217 29.8385 36.3707 31.0082C35.9109 32.232 35.1895 33.3407 34.2569 34.2568C33.3407 35.1894 32.232 35.9108 31.0082 36.3707C29.8404 36.8235 28.5094 37.1315 26.5587 37.2232L25.2534 37.2782L24.8977 37.2892C23.9939 37.3148 22.9471 37.3277 20.8846 37.3313L19.5169 37.3332H17.1171C15.7792 37.3379 14.4414 37.3238 13.1039 37.291L12.7482 37.28C12.313 37.2635 11.8779 37.2446 11.4429 37.2232C9.49224 37.1315 8.16124 36.8235 6.99157 36.3707C5.76843 35.9106 4.66038 35.1892 3.74474 34.2568C2.81147 33.3408 2.08944 32.2321 1.62907 31.0082C1.17624 29.8403 0.868237 28.5093 0.77657 26.5568L0.72157 25.2515L0.712404 24.8958C0.678608 23.559 0.663329 22.2218 0.66657 20.8845V17.1152C0.661496 15.7779 0.674942 14.4407 0.706904 13.1038L0.719737 12.7482C0.734404 12.3357 0.752737 11.9305 0.774737 11.4428C0.866404 9.49034 1.1744 8.16117 1.62724 6.9915C2.08868 5.7672 2.81198 4.65847 3.74657 3.74284C4.66168 2.81068 5.76908 2.08931 6.99157 1.629C8.16124 1.17617 9.4904 0.86817 11.4429 0.776504C11.9306 0.754504 12.3376 0.736171 12.7482 0.721504L13.1039 0.710504C14.4408 0.677931 15.778 0.663874 17.1152 0.668337L20.8846 0.666504ZM18.9999 9.83317C16.5688 9.83317 14.2372 10.7989 12.5181 12.518C10.799 14.2371 9.83324 16.5687 9.83324 18.9998C9.83324 21.431 10.799 23.7626 12.5181 25.4816C14.2372 27.2007 16.5688 28.1665 18.9999 28.1665C21.4311 28.1665 23.7626 27.2007 25.4817 25.4816C27.2008 23.7626 28.1666 21.431 28.1666 18.9998C28.1666 16.5687 27.2008 14.2371 25.4817 12.518C23.7626 10.7989 21.4311 9.83317 18.9999 9.83317ZM18.9999 13.4998C19.7222 13.4997 20.4374 13.6419 21.1047 13.9181C21.7721 14.1944 22.3785 14.5995 22.8893 15.1101C23.4001 15.6207 23.8053 16.227 24.0818 16.8942C24.3583 17.5615 24.5007 18.2767 24.5008 18.9989C24.5009 19.7212 24.3588 20.4364 24.0825 21.1038C23.8062 21.7711 23.4012 22.3775 22.8906 22.8883C22.3799 23.3991 21.7737 23.8043 21.1064 24.0808C20.4392 24.3573 19.724 24.4997 19.0017 24.4998C17.543 24.4998 16.1441 23.9204 15.1126 22.8889C14.0812 21.8575 13.5017 20.4585 13.5017 18.9998C13.5017 17.5411 14.0812 16.1422 15.1126 15.1107C16.1441 14.0793 17.543 13.4998 19.0017 13.4998M28.6267 7.08317C28.0189 7.08317 27.4361 7.32461 27.0063 7.75438C26.5765 8.18416 26.3351 8.76705 26.3351 9.37484C26.3351 9.98263 26.5765 10.5655 27.0063 10.9953C27.4361 11.4251 28.0189 11.6665 28.6267 11.6665C29.2345 11.6665 29.8174 11.4251 30.2472 10.9953C30.677 10.5655 30.9184 9.98263 30.9184 9.37484C30.9184 8.76705 30.677 8.18416 30.2472 7.75438C29.8174 7.32461 29.2345 7.08317 28.6267 7.08317Z" fill="#3551A4"/>
</svg>
