<svg width="38" height="38" viewBox="0 0 38 38" fill="none" xmlns="http://www.w3.org/2000/svg">
<path fill-rule="evenodd" clip-rule="evenodd" d="M18.9998 0.666504C8.87434 0.666504 0.666504 8.87434 0.666504 18.9998C0.666504 22.4648 1.629 25.7098 3.30284 28.4745L1.6675 34.0332C1.57361 34.3523 1.56743 34.6909 1.64962 35.0132C1.73181 35.3356 1.89932 35.6299 2.13456 35.8651C2.3698 36.1003 2.66407 36.2679 2.98643 36.3501C3.3088 36.4322 3.64735 36.4261 3.9665 36.3322L9.52517 34.6968C12.3829 36.4256 15.6599 37.3374 18.9998 37.3332C29.1253 37.3332 37.3332 29.1253 37.3332 18.9998C37.3332 8.87434 29.1253 0.666504 18.9998 0.666504ZM14.8528 23.1487C18.5617 26.8557 22.1018 27.3452 23.3522 27.391C25.2533 27.4607 27.105 26.0087 27.8255 24.3238C27.9157 24.1141 27.9483 23.8841 27.9199 23.6575C27.8916 23.4309 27.8033 23.2161 27.6642 23.035C26.6595 21.7517 25.301 20.8295 23.9737 19.9128C23.6967 19.7208 23.356 19.6436 23.0233 19.6977C22.6906 19.7517 22.3918 19.9327 22.1898 20.2025L21.0898 21.88C21.0317 21.9698 20.9416 22.0342 20.8378 22.0601C20.7339 22.086 20.6242 22.0714 20.5307 22.0193C19.7845 21.5922 18.6973 20.8662 17.9163 20.0852C17.1353 19.3042 16.4533 18.2665 16.0702 17.568C16.0238 17.479 16.0107 17.3764 16.0332 17.2786C16.0557 17.1808 16.1124 17.0943 16.193 17.0345L17.887 15.7768C18.1295 15.5671 18.286 15.2753 18.3266 14.9572C18.3672 14.6392 18.289 14.3174 18.107 14.0535C17.2857 12.8508 16.3287 11.3218 14.9408 10.308C14.7613 10.179 14.5516 10.0986 14.3319 10.0745C14.1122 10.0504 13.89 10.0835 13.6868 10.1705C12.0002 10.8928 10.5408 12.7445 10.6105 14.6493C10.6563 15.8997 11.1458 19.4398 14.8528 23.1487Z" fill="#3551A4"/>
</svg>
