<svg width="203" height="64" viewBox="0 0 203 64" fill="none" xmlns="http://www.w3.org/2000/svg">
<rect x="0.5" y="0.5" width="202" height="63" rx="31.5" stroke="#132442"/>
<path d="M180.601 33.7827C181.577 32.8064 181.577 31.2235 180.601 30.2471L164.692 14.3357C163.716 13.3593 162.133 13.3591 161.157 14.3353C160.181 15.3116 160.18 16.8945 161.157 17.8709L175.298 32.0144L161.155 46.1551C160.178 47.1314 160.178 48.7143 161.154 49.6907C162.131 50.6671 163.713 50.6672 164.69 49.691L180.601 33.7827ZM26.5835 32L26.5833 34.5L178.833 34.5147L178.833 32.0147L178.833 29.5147L26.5837 29.5L26.5835 32Z" fill="black"/>
</svg>
